<?xml version="1.0" encoding="utf-8"?>
<!-- Generator: Adobe Illustrator 27.9.4, SVG Export Plug-In . SVG Version: 9.03 Build 54784)  -->
<svg version="1.1" id="Calque_1" xmlns="http://www.w3.org/2000/svg" xmlns:xlink="http://www.w3.org/1999/xlink" x="0px" y="0px"
	 viewBox="0 0 680.9 124" style="enable-background:new 0 0 680.9 124;" xml:space="preserve">
<style type="text/css">
	.st0{fill:#11224C;}
	.st1{fill:#032C66;}
</style>
<path class="st0" d="M340.4,22.9v30.7c-0.5,0.3-0.9,0.6-1.3,1c-9.4,7.6-15.4,18.8-16.3,30.4c-14.1-7.5-24.2-21.1-26.9-36
	c-9.1,5.4-15.6,14.6-17.3,24.5c-12.7-10.1-22-23.8-26.3-38.8c-9,8.3-16.7,17.9-22.8,28.2c-7.2-4.9-13.5-11-18.6-17.8
	c-5,3.6-10.1,7.2-13.9,11.8c-3.9,4.6-6.4,10.5-5.7,16.3c-8.3-4.7-15-11.7-19.3-19.8c-4.3,8.1-11,15.1-19.3,19.8
	c0.8-5.8-1.8-11.7-5.7-16.3c-3.9-4.6-8.9-8.2-13.9-11.8C128,52,121.7,58,114.5,62.9c-6.1-10.4-13.8-19.9-22.8-28.2
	c-4.3,15-13.6,28.7-26.3,38.8c-1.7-9.9-8.2-19.1-17.3-24.5c-2.7,14.9-12.8,28.5-26.9,36C20.4,73.4,14.4,62.2,5,54.6
	c-0.4-0.3-0.9-0.7-1.3-1V22.9H340.4z"/>
<g>
	<path d="M3.7,53.7c0-0.2,0-0.3,0-0.5c5,3.4,9.2,8.7,12.2,14c2.8,5,4.7,10.6,5.3,16.4c12.7-7.3,22.6-19.8,25.3-34.8
		c0.1-0.6,0.9-0.9,1.4-0.6c8.6,5.1,15.3,13.6,17.5,23.6c11.6-9.6,20.6-22.6,24.9-37.4c0.2-0.7,1-0.9,1.6-0.4
		c8.7,8.1,16.3,17.3,22.5,27.6c6.7-4.7,12.7-10.5,17.8-17.1c0.2-0.3,0.8-0.4,1.1-0.2c8.9,6.3,20.6,14.7,20.3,27.2
		C161,67,167.1,60.7,171.2,53c0.3-0.6,1.3-0.6,1.6,0c4.1,7.7,10.3,14,17.5,18.5c-0.3-12.5,11.4-20.9,20.3-27.2
		c0.3-0.2,0.9-0.2,1.1,0.2c5,6.6,11.1,12.3,17.8,17.1c6.2-10.3,13.8-19.5,22.5-27.6c0.5-0.5,1.3-0.3,1.6,0.4
		c4.3,14.8,13.3,27.8,24.9,37.4c2.3-10.1,9-18.5,17.5-23.6c0.5-0.3,1.3,0,1.4,0.6c2.8,15,12.6,27.5,25.3,34.8
		c0.7-5.8,2.5-11.3,5.3-16.4c3-5.3,7.2-10.6,12.2-14c0,0.2,0,0.3,0,0.5v1.9c-2.5,2-4.8,4.2-6.8,6.8c-5.1,6.4-8.4,14.3-9.1,22.7
		c-0.1,0.7-0.7,1.2-1.4,0.8c-13.3-7.2-23.9-20-27.2-35.3c-8,5.2-14.1,13.4-15.9,23.2c-0.1,0.6-0.9,0.9-1.4,0.6
		c-12.2-9.7-21.7-22.8-26.4-37.9c-8.4,7.9-15.7,17-21.7,27c-0.3,0.4-0.8,0.6-1.3,0.3c-6.9-4.8-13.2-10.6-18.4-17.3
		c-8.7,6.2-20,14.4-18.6,26.8c0.1,0.8-0.8,1.2-1.4,0.8c-7.8-4.4-14.4-10.8-18.9-18.7c-4.6,7.9-11.2,14.3-18.9,18.7
		c-0.6,0.3-1.5-0.1-1.4-0.8c1.4-12.4-9.9-20.7-18.6-26.8c-5.2,6.7-11.5,12.5-18.4,17.3c-0.4,0.3-1,0.1-1.3-0.3
		c-6-10-13.3-19.1-21.7-27C87,51.6,77.5,64.7,65.3,74.3c-0.5,0.4-1.3,0-1.4-0.6c-1.8-9.8-7.8-18-15.9-23.2
		c-3.3,15.3-13.9,28.1-27.2,35.3c-0.7,0.4-1.3-0.1-1.4-0.8c-0.6-7.3-3.2-14.2-7.3-20.2c-2.2-3.2-4.7-6-7.6-8.5
		c-0.3-0.3-0.7-0.5-1-0.8V53.7z"/>
	<path d="M340.4,22.9c0,0.3,0,0.6,0,1c-2.7,0-5.5,0-8.2,0c-8.2,0-16.4,0-24.6,0c-12.2,0-24.3,0-36.5,0c-14.8,0-29.7,0-44.5,0
		c-16.2,0-32.4,0-48.6,0c-16.4,0-32.9,0-49.3,0c-15.2,0-30.5,0-45.7,0c-12.9,0-25.8,0-38.8,0c-9.3,0-18.6,0-27.9,0
		c-2.9,0-5.8,0-8.6,0c-1.4,0-2.8,0.1-4.2,0c0-0.3,0-0.7,0-1v-1c2.7,0,5.5,0,8.2,0c8.2,0,16.4,0,24.6,0c12.2,0,24.3,0,36.5,0
		c14.8,0,29.7,0,44.5,0c16.2,0,32.4,0,48.6,0c16.4,0,32.9,0,49.3,0c15.2,0,30.5,0,45.7,0c12.9,0,25.8,0,38.8,0c9.3,0,18.6,0,27.9,0
		c4.3,0,8.5-0.1,12.8,0V22.9z"/>
</g>
<path class="st0" d="M677.2,22.9v30.7c-0.5,0.3-0.9,0.6-1.3,1c-9.4,7.6-15.4,18.8-16.3,30.4c-14.1-7.5-24.2-21.1-26.9-36
	c-9.1,5.4-15.6,14.6-17.3,24.5c-12.7-10.1-22-23.8-26.3-38.8c-9,8.3-16.7,17.9-22.8,28.2c-7.2-4.9-13.5-11-18.6-17.8
	c-5,3.6-10.1,7.2-13.9,11.8c-3.9,4.6-6.4,10.5-5.7,16.3c-8.3-4.7-15-11.7-19.3-19.8c-4.3,8.1-11,15.1-19.3,19.8
	c0.8-5.8-1.8-11.7-5.7-16.3c-3.9-4.6-8.9-8.2-13.9-11.8c-5.1,6.8-11.4,12.8-18.6,17.8c-6.1-10.4-13.8-19.9-22.8-28.2
	c-4.3,15-13.6,28.7-26.3,38.8c-1.7-9.9-8.2-19.1-17.3-24.5c-2.7,14.9-12.8,28.5-26.9,36c-0.9-11.6-6.9-22.8-16.3-30.4
	c-0.4-0.3-0.9-0.7-1.3-1V22.9H677.2z"/>
<g>
	<path d="M340.4,53.7c0-0.2,0-0.3,0-0.5c5,3.4,9.2,8.7,12.2,14c2.8,5,4.7,10.6,5.3,16.4c12.7-7.3,22.6-19.8,25.3-34.8
		c0.1-0.6,0.9-0.9,1.4-0.6c8.6,5.1,15.3,13.6,17.5,23.6c11.6-9.6,20.6-22.6,24.9-37.4c0.2-0.7,1-0.9,1.6-0.4
		c8.7,8.1,16.3,17.3,22.5,27.6C458,56.8,464,51.1,469,44.5c0.2-0.3,0.8-0.4,1.1-0.2c8.9,6.3,20.6,14.7,20.3,27.2
		C497.8,67,503.9,60.7,508,53c0.3-0.6,1.3-0.6,1.6,0c4.1,7.7,10.3,14,17.5,18.5c-0.3-12.5,11.4-20.9,20.3-27.2
		c0.3-0.2,0.9-0.2,1.1,0.2c5,6.6,11.1,12.3,17.8,17.1c6.2-10.3,13.8-19.5,22.5-27.6c0.5-0.5,1.3-0.3,1.6,0.4
		c4.3,14.8,13.3,27.8,24.9,37.4c2.3-10.1,9-18.5,17.5-23.6c0.5-0.3,1.3,0,1.4,0.6c2.8,15,12.6,27.5,25.3,34.8
		c0.7-5.8,2.5-11.3,5.3-16.4c3-5.3,7.2-10.6,12.2-14c0,0.2,0,0.3,0,0.5v1.9c-2.5,2-4.8,4.2-6.8,6.8c-5.1,6.4-8.4,14.3-9.1,22.7
		c-0.1,0.7-0.7,1.2-1.4,0.8c-13.3-7.2-23.9-20-27.2-35.3c-8,5.2-14.1,13.4-15.9,23.2c-0.1,0.6-0.9,0.9-1.4,0.6
		c-12.2-9.7-21.7-22.8-26.4-37.9c-8.4,7.9-15.7,17-21.7,27c-0.3,0.4-0.8,0.6-1.3,0.3c-6.9-4.8-13.2-10.6-18.4-17.3
		c-8.7,6.2-20,14.4-18.6,26.8c0.1,0.8-0.8,1.2-1.4,0.8c-7.8-4.4-14.4-10.8-18.9-18.7c-4.6,7.9-11.2,14.3-18.9,18.7
		c-0.6,0.3-1.5-0.1-1.4-0.8c1.4-12.4-9.9-20.7-18.6-26.8c-5.2,6.7-11.5,12.5-18.4,17.3c-0.4,0.3-1,0.1-1.3-0.3
		c-6-10-13.3-19.1-21.7-27c-4.8,15.2-14.2,28.3-26.4,37.9c-0.5,0.4-1.3,0-1.4-0.6c-1.8-9.8-7.8-18-15.9-23.2
		c-3.3,15.3-13.9,28.1-27.2,35.3c-0.7,0.4-1.3-0.1-1.4-0.8c-0.6-7.3-3.2-14.2-7.3-20.2c-2.2-3.2-4.7-6-7.6-8.5
		c-0.3-0.3-0.7-0.5-1-0.8V53.7z"/>
	<path d="M677.2,22.9c0,0.3,0,0.6,0,1c-2.7,0-5.5,0-8.2,0c-8.2,0-16.4,0-24.6,0c-12.2,0-24.3,0-36.5,0c-14.8,0-29.7,0-44.5,0
		c-16.2,0-32.4,0-48.6,0c-16.4,0-32.9,0-49.3,0c-15.2,0-30.5,0-45.7,0c-12.9,0-25.8,0-38.8,0c-9.3,0-18.6,0-27.9,0
		c-2.9,0-5.8,0-8.6,0c-1.4,0-2.8,0.1-4.2,0c0-0.3,0-0.7,0-1v-1c2.7,0,5.5,0,8.2,0c8.2,0,16.4,0,24.6,0c12.2,0,24.3,0,36.5,0
		c14.8,0,29.7,0,44.5,0c16.2,0,32.4,0,48.6,0c16.4,0,32.9,0,49.3,0c15.2,0,30.5,0,45.7,0c12.9,0,25.8,0,38.8,0c9.3,0,18.6,0,27.9,0
		c4.3,0,8.5-0.1,12.8,0V22.9z"/>
</g>
<path class="st1" d="M0,1.9v59.5c0.9,0.5,1.8,1.2,2.7,1.8c19.1,14.8,31.2,36.4,33,58.9c28.5-14.6,48.9-40.9,54.3-69.7
	c18.5,10.5,31.5,28.2,35,47.4c25.7-19.5,44.5-46.1,53.1-75.2c18.2,16.1,33.8,34.6,46.1,54.7c14.5-9.6,27.3-21.2,37.6-34.4
	c10.1,6.9,20.4,13.9,28.2,22.8c7.8,9,13,20.3,11.5,31.6c16.8-9.1,30.4-22.6,39-38.3c8.6,15.7,22.2,29.2,39,38.3
	c-1.5-11.3,3.7-22.6,11.5-31.6c7.8-9,18.1-16,28.2-22.8c10.3,13.2,23.1,24.8,37.6,34.4c12.3-20.1,27.9-38.5,46.1-54.7
	c8.6,29,27.4,55.6,53.1,75.2c3.5-19.2,16.5-36.9,35-47.4c5.4,28.8,25.9,55.1,54.3,69.7c1.7-22.5,13.9-44.1,33-58.9
	c0.8-0.7,1.7-1.3,2.7-1.8V1.9H0z"/>
<g>
	<path d="M680.9,61.4c0-0.3,0-0.7,0-1c-10.1,6.6-18.7,16.8-24.7,27.1c-5.7,9.7-9.4,20.5-10.8,31.7c-25.6-14.1-45.6-38.3-51.2-67.3
		c-0.2-1.2-1.8-1.7-2.8-1.1c-17.3,9.9-30.8,26.3-35.5,45.7c-23.5-18.6-41.7-43.7-50.4-72.4c-0.4-1.4-2.1-1.8-3.2-0.8
		c-17.6,15.6-33,33.5-45.6,53.3c-13.6-9.2-25.7-20.2-35.9-33c-0.5-0.6-1.7-0.7-2.3-0.3c-18,12.2-41.7,28.5-41,52.7
		c-14.8-8.7-27.1-20.9-35.5-35.9c-0.7-1.2-2.6-1.2-3.3,0c-8.4,15-20.7,27.2-35.5,35.9c0.6-24.1-23.1-40.5-41-52.7
		c-0.6-0.4-1.8-0.3-2.3,0.3c-10.2,12.8-22.3,23.9-35.9,33c-12.5-19.9-28-37.8-45.6-53.3c-1.1-0.9-2.7-0.6-3.2,0.8
		C166.6,52.9,148.5,78,125,96.5c-4.6-19.5-18.1-35.8-35.5-45.7c-1-0.6-2.5-0.1-2.8,1.1c-5.6,29-25.6,53.2-51.2,67.3
		c-1.4-11.2-5-22-10.8-31.7C18.7,77.2,10.1,67.1,0,60.4c0,0.3,0,0.7,0,1v3.8c5,4,9.6,8.2,13.7,13.1c10.3,12.4,17,27.8,18.3,43.8
		c0.1,1.4,1.5,2.3,2.8,1.6c26.9-13.9,48.3-38.7,55-68.4c16.2,10.1,28.5,26,32.1,44.9c0.2,1.1,1.8,1.8,2.8,1.1
		c24.6-18.7,43.8-44.1,53.4-73.4c16.9,15.3,31.8,32.8,43.8,52.3c0.5,0.8,1.7,1.2,2.6,0.7c14-9.3,26.6-20.5,37.2-33.5
		c17.6,11.9,40.5,27.9,37.7,51.9c-0.2,1.5,1.7,2.2,2.8,1.6c15.7-8.6,29-20.9,38.3-36.2c9.2,15.2,22.6,27.6,38.3,36.2
		c1.1,0.6,3-0.1,2.8-1.6c-2.8-24,20.1-40,37.7-51.9c10.6,13,23.2,24.2,37.2,33.5c0.9,0.6,2.1,0.2,2.6-0.7
		c12-19.4,26.9-36.9,43.8-52.3c9.6,29.4,28.8,54.7,53.4,73.4c0.9,0.7,2.6,0,2.8-1.1c3.6-18.9,15.8-34.8,32.1-44.9
		c6.6,29.7,28.1,54.5,55,68.4c1.3,0.7,2.7-0.2,2.8-1.6c1.2-14.1,6.5-27.6,14.7-39.1c4.3-6.1,9.6-11.6,15.3-16.4
		c0.6-0.5,1.4-1,2.1-1.5V61.4z"/>
	<path d="M0,1.9c0,0.6,0,1.2,0,1.9c5.5,0,11,0,16.6,0c16.6,0,33.1,0,49.7,0c24.6,0,49.1,0,73.7,0c30,0,60,0,89.9,0
		c32.7,0,65.4,0,98.2,0c33.3,0,66.5,0,99.8,0c30.8,0,61.6,0,92.4,0c26.1,0,52.2,0,78.4,0c18.8,0,37.6,0,56.3,0c5.8,0,11.6,0,17.5,0
		c2.8,0,5.7,0.2,8.4,0c0-0.6,0-1.3,0-1.9V0.1c-5.5,0-11,0-16.6,0c-16.6,0-33.1,0-49.7,0c-24.6,0-49.1,0-73.7,0c-30,0-60,0-89.9,0
		c-32.7,0-65.4,0-98.2,0c-33.3,0-66.5,0-99.8,0c-30.8,0-61.6,0-92.4,0c-26.1,0-52.2,0-78.4,0c-18.8,0-37.6,0-56.3,0
		c-8.6,0-17.3-0.1-25.9,0V1.9z"/>
</g>
</svg>
