<?xml version="1.0" encoding="utf-8"?>
<!-- Generator: Adobe Illustrator 27.9.4, SVG Export Plug-In . SVG Version: 9.03 Build 54784)  -->
<svg version="1.1" id="Calque_1" xmlns="http://www.w3.org/2000/svg" xmlns:xlink="http://www.w3.org/1999/xlink" x="0px" y="0px"
	 viewBox="0 0 1920 949" style="enable-background:new 0 0 1920 949;" xml:space="preserve">
<style type="text/css">
	.st0{fill:#111C4A;}
</style>
<g>
	<path class="st0" d="M226.8,147.2C226.8,147.2,226.8,147.2,226.8,147.2c-24.5,25.9-34,65-24.3,99.3c2.6,9.1,6.4,18,6.3,27.4
		c-0.2,18.1-14.9,32.8-30.3,42.4s-32.9,16.7-45.1,30.1c-22.5,24.8-18,68.9,9.1,88.6c20.8,15.1,49.6,15.2,73.7,6.5s44.7-25,64.5-41.4
		c19.8-16.4,39.7-33.3,63.3-43.5c39-16.9,83.7-13.6,124.8-24.3c31.5-8.2,60.8-24.8,84-47.5c8.6-8.5,16.6-18.1,20.3-29.6
		s2.3-25.3-6-34.1c-12-12.7-32.4-10.8-49.6-7.7c-17.2,3-37.5,5.3-49.8-7c-10.5-10.5-10.6-27.4-9.1-42.2c1.6-14.8,3.8-30.8-3.6-43.7
		c-22-38.3-79.1-8.3-111.6-7.9C301,113.2,258.3,113.8,226.8,147.2z"/>
</g>
<g>
	<path class="st0" d="M902.7,256.3C902.7,256.3,902.7,256.3,902.7,256.3c-10,16.7-18.8,35.7-35.8,45c-15.5,8.5-34.4,7-52,9.2
		c-17.6,2.2-37.3,11.2-40.6,28.6c-2.4,12.5,4.7,24.7,12.1,35c9.4,13.1,20.6,26,35.8,31.7c20,7.5,42.7,0.7,60.9-10.6
		c18.1-11.3,33.3-26.7,50.8-38.9c17.5-12.1,39.1-21.1,60-16.6c16.2,3.5,29.8,14.5,45.8,18.7c22.2,5.9,45.9-2.3,65.5-14.4
		c35.3-21.8,62.1-56.8,75.3-96.1c3-8.9,5.3-18.4,3.8-27.6c-1.5-9.3-7.8-18.3-16.9-20.6c-16-4-32.4,13.5-47.9,7.6
		c-12.5-4.8-15.1-21.4-13.1-34.7c1.9-13.3,6-27.6-0.2-39.4c-24.2-46.1-72.6,15.1-95,28.3C967.4,187.5,929.6,211.2,902.7,256.3z"/>
</g>
<g>
	<path class="st0" d="M393.3,611.5C393.3,611.5,393.3,611.5,393.3,611.5c-9.6,22.7,5.1,49.5-1.8,73.1c-5.4,18.2-22.3,30.3-38.2,40.6
		c-16.9,10.8-34.1,21.4-48.4,35.4c-14.4,14-25.8,31.9-28,51.8c-2.2,19.9,6.5,41.7,24.1,51.3c19.1,10.5,43.7,4.5,61.6-8
		c17.9-12.5,30.9-30.6,45.4-46.9c37-41.8,85.1-73.6,138-91.4c34.3-11.5,70.3-17.2,105-27.2s69.3-25.1,93.9-51.7
		c24.5-26.6,37-66.6,23.3-100.1c-5.3-12.9-15.3-24.9-28.9-27.6c-16.8-3.3-32.6,8.2-45.4,19.4c-13.8,12.1-27.2,24.7-40,37.7
		c-6.9,7-14.5,14.7-24.3,15.7c-34.4,3.9-46.6-53.1-88.4-38.8c-12.8,4.4-21.3,15.9-32.2,23.4c-17.4,12-34.9,11.4-55.2,12.8
		C431.2,582.4,403.1,588.3,393.3,611.5z"/>
</g>
<g>
	<path class="st0" d="M1391.7,616C1391.7,616,1391.7,616,1391.7,616c32.1-26.8,78.9-34.9,118.2-20.4c17.2,6.4,33.4,16.8,51.7,18.2
		c22.9,1.8,44.5-11,61.9-26.1s32.5-33,52-45.1c25.7-15.9,59.3-20.3,86.5-7.2c27.2,13.1,45.3,45.1,38.4,74.5
		c-8.1,34.8-45.2,54.9-80.2,61.8c-59.5,11.8-126-0.3-177.3,32c-26.6,16.8-45.2,43.3-65.2,67.6c-8,9.7-16.8,19.4-28.3,24.4
		c-19,8.2-41.7,1.5-57.9-11.4c-24-19.2-44.1-48.8-42.7-80.1C1350.5,670.6,1365.6,637.7,1391.7,616z"/>
</g>
<g>
	<path class="st0" d="M1018.2,745.6C1018.2,745.6,1018.2,745.6,1018.2,745.6c24.8,0.7,49.4-13.6,61.1-35.5
		c6-11.2,8.7-23.7,12.6-35.8c4-12,9.6-24.1,19.7-31.8c13.6-10.3,32.7-10.4,48.9-5.1c17.9,5.8,34.2,18.2,42,35.4
		c7.7,17.2,5.5,39.2-7.6,52.6c-21,21.6-58.9,15.1-82.6,33.7c-16.4,12.9-22.4,35-36.2,50.6c-6.2,7-14.8,13-24.2,12.2
		c-5.9-0.5-11.2-3.5-16.9-4.8c-17.6-4-35.1,9.4-43.6,25.3c-4.8,9-8.5,19.8-17.6,24.4c-16.2,8.2-33.2-9.9-25.1-25.7
		c5.5-10.7,18.5-13.1,11.3-26.9c-4.9-9.4-14.7-15.5-18.8-25.5c-5.9-14.3,4-28.4,15.1-37.1C975.6,736.6,996.3,745,1018.2,745.6z"/>
</g>
<g>
	<path class="st0" d="M1697.2,116.5c37.8-0.8,78.9,8.4,102.9,37.6c11.1,13.6,17.8,32.5,11.6,49c-4.9,13.1-17.2,22.4-30.1,27.7
		c-33.5,13.8-74,6.1-105.3,24.3c-49.7,28.9-53,108.1-104.6,133.5c-24.2,11.9-52.9,8.4-79.1,1.9c-26.1-6.5-52.2-15.8-79.1-14.6
		c-18.1,0.8-36.7,6.2-53.9,0.7c0,0,0,0,0,0c-19.5-6.3-32.4-26-30.4-46.3c2.3-22.8,19.5-33.4,38.1-42.9c28.1-14.2,50-31.7,63.2-60.9
		c9.5-21.1,14.1-44.4,28.5-63.1c21.4-27.9,56.3-40.9,90.6-40C1599.5,124.6,1647.5,117.5,1697.2,116.5z"/>
</g>
</svg>
